<svg width="65" height="19" viewBox="0 0 65 19" fill="none" xmlns="http://www.w3.org/2000/svg">
<path d="M11.603 0.28125C5.67261 0.28125 0.837891 4.41445 0.837891 9.48438C0.837891 14.5543 5.67261 18.6875 11.603 18.6875C14.2573 18.6875 16.6886 17.8554 18.5687 16.4861C20.4488 17.8554 22.8801 18.6875 25.5344 18.6875C28.1886 18.6875 30.62 17.8554 32.5001 16.4861C34.3801 17.8554 36.8115 18.6875 39.4657 18.6875C42.12 18.6875 44.5513 17.8554 46.4314 16.4861C48.3115 17.8554 50.7428 18.6875 53.3971 18.6875C59.3275 18.6875 64.1622 14.5543 64.1622 9.48438C64.1622 4.41445 59.3275 0.28125 53.3971 0.28125C50.7428 0.28125 48.3115 1.11333 46.4314 2.48264C44.5513 1.11333 42.12 0.28125 39.4657 0.28125C36.8115 0.28125 34.3801 1.11333 32.5001 2.48264C30.62 1.11333 28.1886 0.28125 25.5344 0.28125C22.8801 0.28125 20.4488 1.11333 18.5687 2.48264C16.6886 1.11333 14.2573 0.28125 11.603 0.28125ZM11.603 2.44669C13.6057 2.44669 15.4355 3.05161 16.8594 4.0602C15.5518 5.58377 14.7692 7.45659 14.7692 9.48438C14.7692 11.5122 15.5518 13.385 16.8594 14.9086C15.4355 15.9171 13.6057 16.5221 11.603 16.5221C7.04153 16.5221 3.37086 13.384 3.37086 9.48438C3.37086 5.58474 7.04153 2.44669 11.603 2.44669ZM25.5344 2.44669C27.537 2.44669 29.3668 3.05161 30.7908 4.0602C29.4832 5.58377 28.7006 7.45659 28.7006 9.48438C28.7006 11.5122 29.4832 13.385 30.7908 14.9086C29.3668 15.9171 27.537 16.5221 25.5344 16.5221C23.5318 16.5221 21.702 15.9171 20.278 14.9086C21.5856 13.385 22.3682 11.5122 22.3682 9.48438C22.3682 7.45659 21.5856 5.58377 20.278 4.0602C21.702 3.05161 23.5318 2.44669 25.5344 2.44669ZM39.4657 2.44669C41.4684 2.44669 43.2982 3.05161 44.7221 4.0602C43.4145 5.58377 42.632 7.45659 42.632 9.48438C42.632 11.5122 43.4145 13.385 44.7221 14.9086C43.2982 15.9171 41.4684 16.5221 39.4657 16.5221C37.4631 16.5221 35.6333 15.9171 34.2093 14.9086C35.5169 13.385 36.2995 11.5122 36.2995 9.48438C36.2995 7.45659 35.5169 5.58377 34.2093 4.0602C35.6333 3.05161 37.4631 2.44669 39.4657 2.44669ZM53.3971 2.44669C57.9586 2.44669 61.6292 5.58474 61.6292 9.48438C61.6292 13.384 57.9586 16.5221 53.3971 16.5221C51.3945 16.5221 49.5647 15.9171 48.1407 14.9086C49.4483 13.385 50.2309 11.5122 50.2309 9.48438C50.2309 7.45659 49.4483 5.58377 48.1407 4.0602C49.5647 3.05161 51.3945 2.44669 53.3971 2.44669ZM18.5687 5.73503C19.3673 6.82008 19.8352 8.10213 19.8352 9.48438C19.8352 10.8666 19.3673 12.1487 18.5687 13.2337C17.7701 12.1487 17.3022 10.8666 17.3022 9.48438C17.3022 8.10213 17.7701 6.82008 18.5687 5.73503ZM32.5001 5.73503C33.2986 6.82008 33.7665 8.10213 33.7665 9.48438C33.7665 10.8666 33.2986 12.1487 32.5001 13.2337C31.7015 12.1487 31.2336 10.8666 31.2336 9.48438C31.2336 8.10213 31.7015 6.82008 32.5001 5.73503ZM46.4314 5.73503C47.23 6.82008 47.6979 8.10213 47.6979 9.48438C47.6979 10.8666 47.23 12.1487 46.4314 13.2337C45.6329 12.1487 45.1649 10.8666 45.1649 9.48438C45.1649 8.10213 45.6329 6.82008 46.4314 5.73503Z" fill="#000000"/>
</svg>
