<svg width="50" height="17" viewBox="0 0 50 17" fill="none" xmlns="http://www.w3.org/2000/svg">
<path d="M8.5 0.320068C3.81742 0.320068 0 3.9848 0 8.48007C0 12.9753 3.81742 16.6401 8.5 16.6401C10.5958 16.6401 12.5155 15.9023 14 14.6882C15.4845 15.9023 17.4042 16.6401 19.5 16.6401C21.5958 16.6401 23.5155 15.9023 25 14.6882C26.4845 15.9023 28.4042 16.6401 30.5 16.6401C32.5958 16.6401 34.5155 15.9023 36 14.6882C37.4845 15.9023 39.4042 16.6401 41.5 16.6401C46.1826 16.6401 50 12.9753 50 8.48007C50 3.9848 46.1826 0.320068 41.5 0.320068C39.4042 0.320068 37.4845 1.05784 36 2.27194C34.5155 1.05784 32.5958 0.320068 30.5 0.320068C28.4042 0.320068 26.4845 1.05784 25 2.27194C23.5155 1.05784 21.5958 0.320068 19.5 0.320068C17.4042 0.320068 15.4845 1.05784 14 2.27194C12.5155 1.05784 10.5958 0.320068 8.5 0.320068ZM8.5 2.24007C10.0812 2.24007 11.526 2.77642 12.6504 3.67069C11.6179 5.02158 11 6.68212 11 8.48007C11 10.278 11.6179 11.9386 12.6504 13.2894C11.526 14.1837 10.0812 14.7201 8.5 14.7201C4.8983 14.7201 2 11.9377 2 8.48007C2 5.02244 4.8983 2.24007 8.5 2.24007ZM19.5 2.24007C21.0812 2.24007 22.526 2.77642 23.6504 3.67069C22.6179 5.02158 22 6.68212 22 8.48007C22 10.278 22.6179 11.9386 23.6504 13.2894C22.526 14.1837 21.0812 14.7201 19.5 14.7201C17.9188 14.7201 16.474 14.1837 15.3496 13.2894C16.3821 11.9386 17 10.278 17 8.48007C17 6.68212 16.3821 5.02158 15.3496 3.67069C16.474 2.77642 17.9188 2.24007 19.5 2.24007ZM30.5 2.24007C32.0812 2.24007 33.526 2.77642 34.6504 3.67069C33.6179 5.02158 33 6.68212 33 8.48007C33 10.278 33.6179 11.9386 34.6504 13.2894C33.526 14.1837 32.0812 14.7201 30.5 14.7201C28.9188 14.7201 27.474 14.1837 26.3496 13.2894C27.3821 11.9386 28 10.278 28 8.48007C28 6.68212 27.3821 5.02158 26.3496 3.67069C27.474 2.77642 28.9188 2.24007 30.5 2.24007ZM41.5 2.24007C45.1017 2.24007 48 5.02244 48 8.48007C48 11.9377 45.1017 14.7201 41.5 14.7201C39.9188 14.7201 38.474 14.1837 37.3496 13.2894C38.3821 11.9386 39 10.278 39 8.48007C39 6.68212 38.3821 5.02158 37.3496 3.67069C38.474 2.77642 39.9188 2.24007 41.5 2.24007ZM14 5.15569C14.6305 6.11776 15 7.25449 15 8.48007C15 9.70565 14.6305 10.8424 14 11.8044C13.3695 10.8424 13 9.70565 13 8.48007C13 7.25449 13.3695 6.11776 14 5.15569ZM25 5.15569C25.6305 6.11776 26 7.25449 26 8.48007C26 9.70565 25.6305 10.8424 25 11.8044C24.3695 10.8424 24 9.70565 24 8.48007C24 7.25449 24.3695 6.11776 25 5.15569ZM36 5.15569C36.6305 6.11776 37 7.25449 37 8.48007C37 9.70565 36.6305 10.8424 36 11.8044C35.3695 10.8424 35 9.70565 35 8.48007C35 7.25449 35.3695 6.11776 36 5.15569Z" fill="black"/>
</svg>
