<svg width="30" height="36" viewBox="0 0 30 36" fill="none" xmlns="http://www.w3.org/2000/svg">
<path d="M13.6249 35.3333V29.8333H0.333252V27.0833H29.6666V29.8333H16.3749V35.3333H13.6249ZM7.90377 15.9458C8.29565 15.9458 8.62145 15.8133 8.88117 15.5482C9.14089 15.2831 9.27075 14.9547 9.27075 14.5628C9.27075 14.1709 9.13822 13.8451 8.87315 13.5854C8.60805 13.3257 8.27958 13.1958 7.88773 13.1958C7.49586 13.1958 7.17006 13.3284 6.91034 13.5934C6.65061 13.8585 6.52075 14.187 6.52075 14.5789C6.52075 14.9707 6.65329 15.2965 6.91836 15.5562C7.18346 15.816 7.51193 15.9458 7.90377 15.9458ZM22.1121 15.9458C22.504 15.9458 22.8298 15.8133 23.0895 15.5482C23.3492 15.2831 23.4791 14.9547 23.4791 14.5628C23.4791 14.1709 23.3466 13.8451 23.0815 13.5854C22.8164 13.3257 22.4879 13.1958 22.0961 13.1958C21.7042 13.1958 21.3784 13.3284 21.1187 13.5934C20.8589 13.8585 20.7291 14.187 20.7291 14.5789C20.7291 14.9707 20.8616 15.2965 21.1267 15.5562C21.3918 15.816 21.7203 15.9458 22.1121 15.9458ZM2.16659 10.7667L5.19159 1.96667C5.34436 1.53889 5.59645 1.1875 5.94784 0.9125C6.29922 0.6375 6.68881 0.5 7.11659 0.5H22.8833C23.311 0.5 23.7006 0.6375 24.052 0.9125C24.4034 1.1875 24.6555 1.53889 24.8083 1.96667L27.8333 10.7667V23.2333C27.8333 23.5542 27.7301 23.8177 27.5239 24.024C27.3176 24.2302 27.0541 24.3333 26.7333 24.3333H26.1833C25.8624 24.3333 25.5989 24.2302 25.3926 24.024C25.1864 23.8177 25.0833 23.5542 25.0833 23.2333V20.3H4.91659V23.2333C4.91659 23.5542 4.81346 23.8177 4.60721 24.024C4.40096 24.2302 4.13742 24.3333 3.81659 24.3333H3.26659C2.94575 24.3333 2.68221 24.2302 2.47596 24.024C2.26971 23.8177 2.16659 23.5542 2.16659 23.2333V10.7667ZM5.69575 8.84167H24.3499L22.4708 3.25H7.52909L5.69575 8.84167ZM4.91659 17.55H25.0833V11.5917H4.91659V17.55Z" fill="#FFBF00"/>
</svg>
