<svg width="77" height="72" viewBox="0 0 77 72" fill="none" xmlns="http://www.w3.org/2000/svg">
<path d="M8.48853 69.1959C7.70656 68.4158 7.70508 67.1495 8.48522 66.3675L72.0504 2.65354C72.8305 1.87158 74.0969 1.8701 74.8788 2.65024L76.2947 4.0628C77.0767 4.84293 77.0781 6.10926 76.298 6.89122L12.7328 70.6052C11.9527 71.3871 10.6864 71.3886 9.90439 70.6085L8.48853 69.1959Z" fill="#115500"/>
<path d="M1.41581 67.79C0.633849 67.0098 0.632369 65.7435 1.4125 64.9615L64.9777 1.2476C65.7578 0.465636 67.0242 0.464155 67.8061 1.24429L69.222 2.65685C70.0039 3.43699 70.0054 4.70332 69.2253 5.48528L5.6601 69.1992C4.87996 69.9812 3.61364 69.9827 2.83168 69.2025L1.41581 67.79Z" fill="#937B00"/>
</svg>
