<svg width="26" height="36" viewBox="0 0 26 36" fill="none" xmlns="http://www.w3.org/2000/svg">
<path d="M12.92 0L0 2.4225V12.442C0 13.0298 0.11875 26.9562 12.5133 34.8531L12.92 35.1144L13.3297 34.8531C25.6975 26.9177 25.84 13.0269 25.84 12.4391V2.4225L12.92 0ZM12.92 1.54375L24.32 3.68125V5.1775L12.92 3.04L1.52 5.1775V3.68125L12.92 1.54375ZM12.92 4.58375L24.32 6.72125V8.58266C20.6655 7.33875 16.8388 6.70047 12.92 6.70047C7.82266 6.70047 3.86828 7.73359 1.52 8.55891V6.72125L12.92 4.58375ZM12.92 8.22047C16.8447 8.22047 20.6773 8.87953 24.32 10.1858V12.4391C24.32 12.9853 24.1864 25.7747 12.92 33.3064C1.62984 25.8103 1.52 12.9912 1.52 12.4391V10.1739C3.66344 9.36937 7.6475 8.22047 12.92 8.22047ZM13.3 10.7261C13.1486 10.8805 12.9942 11.1061 12.9942 11.4861C12.0828 11.4861 12.0086 12.0205 11.78 12.1719C10.64 12.6291 10.4886 12.3233 10.1858 12.6261C10.0314 12.7805 9.95422 12.9319 9.95422 13.0833C9.88 13.4633 10.0314 13.7661 10.4886 13.7661C10.64 13.7661 10.9428 13.5405 11.1714 13.5405C11.5514 13.5405 11.9314 13.9205 12.54 13.9205C12.7686 13.9205 12.9942 13.7691 13.3742 13.1605C13.2228 13.9977 12.9942 14.3005 12.3114 14.3005C12.2342 14.8319 11.7028 16.7319 11.1714 17.1861C10.26 17.8719 9.80281 18.0233 9.27141 18.1005C9.19422 18.1777 8.66578 18.1005 8.58859 18.3261C8.51141 18.5547 8.51141 18.7091 8.58859 19.0119C8.58859 19.3147 8.74 19.8461 8.96859 20.6061C8.96859 20.7605 9.12 20.9119 9.19422 20.9119C9.34859 20.9891 9.34859 21.0633 9.34859 21.0633C9.42578 21.8233 9.80578 22.2033 9.80578 22.2033C9.80578 22.2033 10.5628 21.2919 10.4114 20.9861C10.3342 20.8347 9.88 20.6833 9.88 20.6833V20.3805C9.80281 20.2291 9.42281 19.1633 9.5 19.1633H10.7914C10.7914 19.1633 11.6286 20.6091 13.2258 21.5977C13.4514 21.3691 13.8314 20.9861 14.44 21.0633C12.92 21.2147 12.92 22.8891 13.3 23.5719C13.8314 24.6347 13.8314 24.8633 13.7542 25.0919C13.3742 25.7005 13.3 25.7747 13.1486 26.0033C13.0714 26.1547 13.2228 26.2319 13.0714 26.3061C12.3114 26.6861 12.16 27.2977 12.16 27.2977C12.16 27.2977 13.4514 27.4491 13.68 27.2205C13.7572 27.1433 13.7542 26.7633 13.7542 26.7633C13.7542 26.7633 14.06 26.8405 14.1342 26.8405C14.2114 26.7633 14.3658 26.7633 14.3658 26.6861C14.3658 26.6119 14.5142 26.3091 14.5142 26.2319C14.5914 25.9291 14.9714 25.2433 15.2 25.0919C15.2 25.0147 14.82 24.5605 14.82 24.3319C14.7428 23.3433 15.58 23.4205 16.6458 22.1261C16.72 21.9747 16.8714 22.0519 16.9486 22.0519C18.9258 22.0519 18.6972 20.4547 19 18.7061C18.3914 19.3919 18.3914 19.0119 18.3914 19.0119C18.3142 18.3291 18.8486 17.1861 18.8486 17.1861C18.8486 17.1861 18.0886 17.6433 18.0114 18.2519C17.7086 17.6433 18.24 16.7319 18.24 16.7319C17.9372 16.8833 17.5542 17.1891 17.5542 18.2519C17.5542 20.9891 17.48 20.8347 17.2514 21.2919C17.1742 21.3691 16.9486 21.3691 17.0258 21.1405C16.9486 20.8377 17.1 20.1519 15.2742 19.0861C14.44 18.5547 13.9828 17.7205 14.1342 17.3405C14.3628 17.5691 14.8972 17.5661 15.2 17.5661C14.9714 17.4147 14.44 17.0347 14.2886 16.8061C14.5172 16.9605 15.5058 17.1891 15.8086 17.0377C15.2772 16.8091 14.5914 16.2747 14.44 15.9719C14.5914 16.1233 15.4286 16.2747 15.8086 16.1233C15.4286 15.9719 14.82 15.6691 14.6686 15.2119C14.9714 15.2891 15.2 15.3633 15.96 15.2119C15.3514 14.9833 14.8972 14.5261 14.6686 14.2233C14.8972 14.2233 15.6572 14.3005 15.96 14.5261C15.8086 14.0719 15.1228 13.6919 14.5914 13.3119C14.7428 13.3119 15.3514 13.3891 15.6542 13.3119C15.3514 13.0091 14.6686 12.7033 14.5914 12.5519C14.82 12.5519 15.1228 12.4005 15.2742 12.2461C14.2886 12.2461 14.1342 11.4861 13.7542 11.4861C13.6028 11.4119 13.3772 10.8805 13.3 10.7261ZM9.65141 14.6805C9.5 14.6805 7.98 16.0461 7.98 16.1233C7.90281 16.2747 7.90578 16.3519 7.90578 16.3519C7.14578 16.5805 6.91422 17.0377 6.91422 17.0377C6.91422 17.0377 7.90281 17.6433 8.13141 17.4177C8.28281 17.2633 8.36 16.8061 8.36 16.8061C8.36 16.8061 8.58859 16.8091 8.66578 16.7319L8.89141 16.5033C9.12 16.2747 9.57422 15.8977 9.57422 15.8977C9.72859 16.0491 10.1828 16.6577 10.4114 16.9605C10.5628 16.8833 10.9428 16.5805 11.1714 16.1233C10.64 15.5147 10.0314 14.6805 9.65141 14.6805ZM12.2342 21.3661C12.16 22.5833 12.3114 23.4947 12.16 23.5719C11.4772 23.8005 11.0942 23.4947 10.7914 23.5719C10.64 23.6491 10.7172 23.8005 10.5658 23.7233C9.72859 23.5719 9.27141 24.0261 9.27141 24.0261C9.27141 24.0261 10.1858 25.0919 10.4886 25.0177C10.5658 25.0177 10.8686 24.7119 10.8686 24.7119C10.8686 24.7119 10.9428 25.0147 11.0942 25.0919C11.1714 25.0919 11.3228 25.1691 11.4 25.0919C11.4772 25.0147 11.7028 24.8633 11.78 24.8633C12.0086 24.7119 12.8458 24.5605 13.1486 24.5605C13.2258 24.4091 13.3 24.2547 13.2258 24.1033C13.2258 24.1033 12.4658 23.3433 12.8458 21.9005C12.7686 21.8233 12.3114 21.4433 12.2342 21.3661Z" fill="#DFBB00"/>
</svg>
