<svg width="30" height="34" viewBox="0 0 30 34" fill="none" xmlns="http://www.w3.org/2000/svg">
<path fill-rule="evenodd" clip-rule="evenodd" d="M25.6579 1.41518C22.9776 0.56845 19.0484 0 15 0C10.9516 0 7.02237 0.56845 4.34211 1.41518C0.749211 2.5505 0 3.04521 0 5.51722C0 18.5115 5.09605 25.7349 9.60237 30.0668C11.9739 32.3462 14.1687 34 15 34C15.8313 34 18.0261 32.347 20.3976 30.0668C24.9039 25.7349 30 18.5115 30 5.51722C30 3.04521 29.2508 2.5505 25.6579 1.41518Z" fill="#ba9c00"/>
<path fill-rule="evenodd" clip-rule="evenodd" d="M15.0071 33.2064C14.6526 33.1778 12.9995 32.2336 10.1487 29.4936C3.85105 23.4397 0.789474 15.5971 0.789474 5.51722C0.789474 3.63824 1.02395 3.29495 4.57895 2.17153C7.3121 1.30815 11.2082 0.792818 15 0.792818L15.0071 33.2064Z" fill="#969696"/>
<path fill-rule="evenodd" clip-rule="evenodd" d="M19.3058 28.9212C17.1111 31.0309 15.5929 32.098 15 32.37C14.4071 32.098 12.8889 31.0309 10.6942 28.9212C4.56079 23.025 1.57895 15.3696 1.57895 5.51722C1.57895 4.06874 1.57895 3.95061 4.81579 2.92788C7.47632 2.08749 11.2839 1.58564 15 1.58564C18.7161 1.58564 22.5237 2.08749 25.1842 2.92788C28.4211 3.95061 28.4211 4.06874 28.4211 5.51722C28.4211 15.3696 25.4392 23.025 19.3058 28.9212Z" fill="#5a5a5a"/>
<path fill-rule="evenodd" clip-rule="evenodd" d="M15 32.37C14.4071 32.098 12.8889 31.0309 10.6942 28.9212C4.56079 23.025 1.57895 15.3696 1.57895 5.51722C1.57895 4.06874 1.57895 3.95061 4.81579 2.92788C7.47632 2.08749 11.2839 1.58564 15 1.58564C15 1.58564 15.5929 32.098 15 32.37Z" fill="#ba9c00"/>
<path fill-rule="evenodd" clip-rule="evenodd" d="M3.51158 5.31817L4.12342 5.0835V7.91465L5.14105 7.53489V8.13585L3.51158 8.72253C3.51158 8.72253 3.51158 5.31104 3.51158 5.31817ZM6.60947 4.36521L6.03631 4.50553L5.22158 8.09779L5.86421 7.90593L6.04263 7.01718L6.62842 6.85069L6.82579 7.69425L7.4621 7.5341L6.60947 4.36521ZM6.13816 6.44239L6.32921 5.36891L6.53289 6.3528L6.13816 6.44239ZM7.72342 7.48415L8.28316 7.38188L8.24526 5.51559L8.85631 7.54837L9.48 5.54809L9.43579 7.19715L10.0405 7.13293V3.74522L9.42947 3.82213L8.88158 5.85412L8.31552 3.99417L7.7171 4.12815C7.7171 4.12815 7.7171 7.49049 7.72342 7.48415ZM12.0639 5.15802C12.2234 5.03672 12.3821 4.8956 12.3821 4.43577C12.3821 3.97593 12.0387 3.59221 11.5484 3.61758C11.1347 3.63898 10.5237 3.70082 10.5237 3.70082V7.06237C10.5237 7.06237 11.4971 6.98547 11.6124 6.97278C11.7268 6.9601 12.4334 6.81977 12.4334 5.85412C12.4334 5.85412 12.4389 5.33007 12.0639 5.15802ZM11.1253 4.21536C11.1253 4.21536 11.3645 4.20426 11.4142 4.20189C11.4639 4.19951 11.7718 4.19634 11.7718 4.48096C11.7718 4.76558 11.5824 4.91463 11.4442 4.92811C11.3068 4.94159 11.1221 4.93921 11.1221 4.93921L11.1253 4.21536ZM11.5097 6.37183C11.37 6.3972 11.1339 6.40275 11.1339 6.40275V5.54096C11.1339 5.54096 11.4268 5.52193 11.4837 5.52193C11.5413 5.52193 11.8271 5.56633 11.8271 5.87949C11.8279 6.19344 11.6503 6.34646 11.5097 6.37183ZM13.755 3.43761C13.1795 3.43761 12.7129 3.99655 12.7129 5.16992C12.7129 6.53832 13.1795 6.90222 13.755 6.90222C14.3305 6.90222 14.7971 6.32585 14.7971 5.16992C14.7971 4.0132 14.3305 3.43761 13.755 3.43761ZM13.755 6.32664C13.5103 6.32664 13.3121 6.08721 13.3121 5.18736C13.3121 4.41595 13.5103 4.04808 13.755 4.04808C13.9997 4.04808 14.1979 4.42705 14.1979 5.18736C14.1979 5.94767 13.9997 6.32664 13.755 6.32664ZM16.6287 5.3483C16.6287 5.3483 17.1134 5.17388 17.1134 4.45717C17.1134 3.74047 16.5371 3.52958 16.3176 3.52006C16.0982 3.51055 15.1563 3.47408 15.1563 3.47408V6.84514H15.7508C15.7508 6.85466 15.7603 5.44899 15.7603 5.44899H15.9892L16.5016 6.87289L17.16 6.90064L16.6287 5.3483ZM16.1897 4.88926C15.9979 4.88926 15.7508 4.88926 15.7508 4.88926V4.08058C15.7508 4.08058 15.9521 4.08058 16.1076 4.08058C16.2632 4.08058 16.5189 4.17255 16.5189 4.43894C16.5189 4.70532 16.3816 4.88926 16.1897 4.88926ZM18.7405 5.7899L18.4003 5.76691V5.18022L19.3539 5.2603C19.3539 5.2603 19.3539 5.88742 19.3539 6.04677C19.3539 6.20613 19.3539 7.02115 18.4689 7.02115C17.5839 7.02115 17.3455 6.11495 17.3455 5.15168C17.3455 4.18841 17.6574 3.53354 18.3332 3.53354C19.2845 3.53354 19.3603 4.565 19.3603 4.565L18.7476 4.67361C18.7476 4.67361 18.6568 4.14401 18.39 4.14401C18.1232 4.14401 17.9416 4.62287 17.9416 5.22066C17.9416 5.81923 18.0718 6.42336 18.435 6.42336C18.7445 6.42336 18.7468 6.05867 18.7468 5.98493C18.7461 5.90962 18.7405 5.7899 18.7405 5.7899ZM19.8024 3.7365V7.10281L20.3874 7.19319L20.3984 5.71379L21.1634 5.81527L21.1524 7.28357L21.7824 7.39694V4.05284L21.1634 3.92916V5.21669L20.4103 5.10332V3.82768L19.8024 3.7365ZM22.26 4.15115V7.49208L22.8853 7.611V4.27007L22.26 4.15115ZM23.3913 4.37155V7.71328L23.9747 7.89087V5.81289L24.8526 8.12871L25.3595 8.32375V4.93128L24.7516 4.72752V6.52563L23.9574 4.50712L23.3913 4.37155ZM25.8576 5.11759V8.48469L26.4655 8.73046V5.33007L25.8576 5.11759Z" fill="#000000"/>
<path fill-rule="evenodd" clip-rule="evenodd" d="M17.0289 10.9662C16.8031 10.8457 16.5315 10.7664 16.2576 10.745C15.9836 10.7236 15.7073 10.7609 15.4689 10.8743C15.2313 10.9876 14.6463 11.2239 14.0392 11.6147C13.4313 12.0064 12.8013 12.5527 12.4713 13.2852C12.1413 14.0178 11.9715 14.4816 11.8665 14.8043C11.7615 15.1269 11.7221 15.3085 11.6518 15.4766C11.5815 15.6446 11.4694 15.8143 11.3708 16.0046C11.2721 16.1949 11.1884 16.405 11.1765 16.6539C11.1647 16.9028 11.1268 17.1938 11.0786 17.4721C11.0305 17.7512 10.9713 18.0168 10.9144 18.2173C10.8576 18.4171 10.785 18.647 10.7218 18.9063C10.6586 19.1648 10.6058 19.4502 10.5908 19.7617C10.5758 20.0725 10.5379 20.3833 10.4763 20.6727C10.4163 20.9621 10.3334 21.2308 10.2292 21.46C10.125 21.6891 10.0839 21.8897 10.0405 22.0784C9.99628 22.2678 9.94891 22.4446 9.83128 22.6262C9.71444 22.807 9.55576 23.0337 9.39865 23.2486C9.24076 23.4626 9.08365 23.6664 8.96918 23.8004C8.85391 23.9351 8.79154 24.0953 8.81602 24.2332C8.84049 24.3712 8.95102 24.4854 9.18154 24.5282C9.41128 24.5702 9.61497 24.5337 9.7697 24.4481C9.92523 24.3625 10.0318 24.2269 10.0705 24.0723C10.1084 23.9185 10.1194 23.7005 10.1423 23.4793C10.1644 23.2581 10.1984 23.0337 10.2844 22.8664L10.4573 22.5001C10.541 22.3796 10.5971 22.3352 10.6531 22.2996C10.7092 22.2631 10.7644 22.2345 10.8465 22.145C10.9279 22.0554 11.0644 21.8048 11.1829 21.5218C11.3013 21.2396 11.4015 20.9248 11.4118 20.7068C11.4229 20.4888 11.4544 20.3191 11.5002 20.1764C11.5452 20.0345 11.6052 19.9203 11.6723 19.8141C11.7394 19.7078 11.7837 19.5857 11.8468 19.4954C11.9092 19.4042 11.9897 19.3463 12.1279 19.3685C12.266 19.3907 12.3015 19.4629 12.3126 19.5532C12.3236 19.6436 12.311 19.7522 12.3529 19.8482C12.3947 19.9433 12.4358 20.0472 12.4973 20.1399C12.5581 20.2327 12.6402 20.3143 12.761 20.3675C12.8826 20.4198 12.9781 20.5181 13.0231 20.6299C13.0681 20.7417 13.0618 20.8661 12.9797 20.9708C12.8968 21.0754 12.78 21.257 12.6813 21.4441C12.5834 21.6304 12.5044 21.8215 12.4981 21.946C12.4926 22.0704 12.4989 22.2583 12.4658 22.4518C12.4334 22.6452 12.3615 22.8442 12.1997 22.9925C12.0379 23.1407 11.9068 23.2898 11.8152 23.4222C11.7236 23.5538 11.6715 23.6688 11.6684 23.7464C11.6644 23.8241 11.6905 23.9272 11.7671 24.0128C11.8444 24.0985 11.9723 24.1674 12.1737 24.177C12.3742 24.1865 12.5305 24.1555 12.6505 24.0874C12.7697 24.0192 12.8518 23.9137 12.9055 23.7766C12.9584 23.6386 12.9552 23.5371 12.9402 23.4468C12.9252 23.3564 12.8976 23.2771 12.9031 23.1835C12.9079 23.09 12.9442 22.9822 12.9836 22.872C13.0239 22.761 13.0681 22.646 13.0894 22.5382C13.11 22.4304 13.14 22.2988 13.1968 22.1537C13.2544 22.0086 13.3389 21.8492 13.4708 21.6835C13.6026 21.5178 13.6792 21.3735 13.7439 21.2443C13.8086 21.1151 13.86 21.0001 13.9429 20.8947C14.0258 20.79 14.0597 20.7361 14.0905 20.7226C14.1221 20.7084 14.1521 20.7337 14.2271 20.7837C14.3021 20.8344 14.3155 20.882 14.2973 20.9351C14.2792 20.9882 14.2294 21.0485 14.1797 21.1246C14.13 21.1999 14.0305 21.3276 13.9271 21.4631C13.8236 21.5987 13.7155 21.7414 13.6492 21.8477C13.5821 21.9539 13.5363 22.0918 13.5505 22.21C13.5639 22.3273 13.6365 22.4248 13.8055 22.4486C13.9752 22.4724 14.1063 22.4787 14.2002 22.4557C14.2942 22.4335 14.351 22.3812 14.3708 22.2885C14.3913 22.1957 14.4292 22.0498 14.4789 21.9039C14.5286 21.7581 14.5894 21.613 14.6558 21.5234C14.7221 21.433 14.7647 21.349 14.7915 21.276C14.8184 21.2031 14.8294 21.1413 14.8318 21.0945C14.9202 21.1928 14.9913 21.3054 15.0521 21.4211C15.1121 21.5377 15.1602 21.6566 15.2013 21.7676C15.2423 21.8794 15.3442 22.0165 15.5329 22.1275C15.7208 22.2385 15.9955 22.3218 16.3823 22.3249C16.77 22.3289 16.9634 22.3225 17.0731 22.2924C17.1829 22.2631 17.2089 22.2092 17.2594 22.1188C17.31 22.0284 17.4276 21.8461 17.4908 21.6582C17.5547 21.4703 17.5642 21.2752 17.3992 21.1579C17.4379 21.0041 17.4939 20.7964 17.5737 20.5974C17.6526 20.3984 17.7552 20.2081 17.8847 20.09C18.0142 19.9711 18.1902 19.8553 18.3465 19.7499C18.5029 19.6444 18.6394 19.5493 18.6892 19.474C18.885 19.5929 19.0634 19.738 19.1929 19.9393C19.3231 20.1407 19.4029 20.3984 19.4021 20.7417C19.3926 20.928 19.4076 21.104 19.4273 21.257C19.4471 21.41 19.4708 21.54 19.4818 21.6344C19.4929 21.7287 19.4881 21.8294 19.4826 21.9349C19.4779 22.0395 19.4723 22.1489 19.4826 22.2583C19.4929 22.3685 19.5568 22.4724 19.6429 22.5469C19.7281 22.6214 19.8347 22.6658 19.9279 22.6547C20.0218 22.6444 20.111 22.5628 20.1781 22.4565C20.2452 22.3503 20.2902 22.2203 20.295 22.1109C20.3005 22.0023 20.2736 21.9222 20.2334 21.858C20.1939 21.7929 20.1418 21.7446 20.0984 21.6954C20.0542 21.6463 20.025 21.6058 20.0202 21.5472C20.0155 21.4885 20.0344 21.4116 20.0873 21.2895C20.1394 21.1666 20.1371 21.0572 20.1102 20.9668C20.0834 20.8757 20.0329 20.8035 19.9894 20.7544C19.9452 20.7052 19.8979 20.5704 19.8671 20.3968C19.8371 20.224 19.8237 20.0123 19.8489 19.8109C19.8742 19.6095 19.8663 19.3749 19.8221 19.1703C19.7779 18.965 19.6973 18.7898 19.5773 18.7057C19.9334 18.7073 20.34 18.7041 20.7079 18.6209C21.0758 18.5376 21.405 18.3743 21.6071 18.0564C21.4065 18.031 21.1736 18.035 20.9005 17.9359C20.6265 17.8368 20.3115 17.6338 19.9452 17.1946C19.9855 17.0099 19.9989 16.8854 19.9926 16.78C19.9863 16.6745 19.9594 16.5873 19.9184 16.4763C19.8773 16.3645 19.8205 16.2607 19.7897 16.0958C19.7589 15.9309 19.7542 15.7041 19.8189 15.3481C19.8829 14.9929 19.9026 14.4166 19.7905 13.7791C19.6784 13.1417 19.4336 12.4432 18.9671 11.8431C19.1265 11.4292 19.2181 11.1454 19.2489 10.9131C19.2797 10.6808 19.2497 10.4993 19.1668 10.2931C19.0839 10.0862 18.8447 9.90305 18.4879 9.76431C18.1302 9.62636 17.655 9.53281 17.0992 9.50506C16.5426 9.4781 15.746 9.46225 15.09 9.41072C14.4347 9.35918 13.92 9.27197 13.9279 9.09993C13.9365 8.92868 14.0329 8.85574 14.1584 8.82244C14.2839 8.78994 14.4379 8.79787 14.5626 8.78756C14.7442 8.87477 15.0047 8.93344 15.2779 8.97466C15.551 9.0151 15.836 9.0373 16.0681 9.0484C16.3002 9.0595 16.5189 9.00796 16.7502 8.95643C16.9808 8.90569 17.2239 8.85495 17.5018 8.86843C17.2737 8.77884 16.9863 8.64802 16.6886 8.54734C16.391 8.44744 16.0847 8.37767 15.8202 8.41176C15.7318 8.31345 15.6663 8.23972 15.5597 8.20405C15.4523 8.16758 15.3055 8.16758 15.056 8.21832C14.8058 8.26826 14.6494 8.28412 14.5176 8.29363C14.3858 8.30236 14.2768 8.30473 14.1213 8.32852C13.9658 8.3523 13.7479 8.36499 13.5663 8.43793C13.3847 8.51087 13.2386 8.64406 13.226 8.90886C13.2134 9.17366 13.2868 9.41151 13.541 9.59148C13.796 9.77145 14.231 9.89433 14.9423 9.92922C15.6529 9.9641 16.4258 9.99423 17.0613 10.068C17.6968 10.1417 18.1942 10.2598 18.3544 10.4699C18.5139 10.6808 18.5542 10.8156 18.5218 10.9226C18.4894 11.0304 18.3844 11.1113 18.2558 11.2136C18.1476 11.2088 17.9542 11.2072 17.7308 11.1763C17.5081 11.1462 17.2555 11.0867 17.0289 10.9662Z" fill="#000"/>
</svg>
