<svg width="76" height="106" viewBox="0 0 76 106" fill="none" xmlns="http://www.w3.org/2000/svg">
<path d="M28.5047 88.625H47.5047V93.375H28.5047V88.625ZM30.989 95.75H45.1297V105.25H30.989V95.75ZM11.8797 64.875H64.1297V67.25H11.8797V64.875ZM9.50471 69.625H66.5047V72H9.50471V69.625ZM9.50471 60.125H66.5047V62.5H9.50471V60.125ZM48.2861 77.6834C45.1131 80.7424 45.1297 86.25 45.1297 86.25H30.8797C30.8797 86.25 30.8987 80.7424 27.7257 77.6834C25.5193 75.5412 22.7145 75.097 22.7145 75.097C20.9451 74.7337 21.3821 74.4914 21.3821 74.375H54.6321C54.6321 74.375 54.834 74.7147 53.067 75.097C53.067 75.097 50.4853 75.5412 48.2861 77.6834ZM11.8797 74.375C12.5067 74.375 18.1236 74.375 19.0047 74.375C19.0047 77.301 17.0358 78.9517 14.2547 79.1132C13.5137 79.1559 12.7157 79.0918 11.8797 78.9184C11.8797 76.5482 11.8797 75.5768 11.8797 74.375ZM11.8797 57.75C11.8797 53 11.3881 44.564 8.50484 34.9144C5.34846 24.3362 -0.394288 18.1588 0.0332125 17.5318C0.422713 16.9404 5.47196 18.0068 9.40971 20.7143C13.6111 23.6094 19.3087 28.8653 19.0047 29.2215C18.8195 29.4424 17.5465 29.1337 14.991 28.186C12.2716 27.1719 9.50471 26.875 9.50471 26.875C9.50471 26.875 13.87 33.3422 16.1048 41.4314C17.9787 48.2192 18.9525 56.9877 19.0047 57.75H11.8797ZM64.1297 57.75H57.0047C57.0546 56.9877 58.0307 48.2192 59.9046 41.4314C62.1418 33.3422 66.5047 26.875 66.5047 26.875C66.5047 26.875 63.7378 27.1719 61.0185 28.1884C58.463 29.136 57.19 29.4424 57.0047 29.2239C56.7007 28.8677 62.3983 23.6118 66.5997 20.7167C70.5375 18.0092 75.5867 16.9428 75.9762 17.5342C76.4037 18.1612 70.661 24.3362 67.5046 34.9168C64.6237 44.564 64.1297 53 64.1297 57.75ZM64.1297 74.375C63.5027 74.375 57.8858 74.375 57.0047 74.375C57.0047 77.2987 58.976 78.9493 61.7547 79.1108C62.4957 79.1535 63.2961 79.0918 64.1297 78.9184C64.1297 76.5482 64.1297 75.5768 64.1297 74.375ZM42.0778 39.5195C39.9855 33.0002 40.3797 19.75 40.3797 19.75C40.3797 19.75 42.8687 21.783 45.1891 22.8684C46.6283 23.5453 49.5045 25.0178 49.8773 24.4264C50.1647 23.9514 44.042 18.3559 41.6385 13.5822C39.1661 8.70154 38.6151 1.49579 38.0047 0.821289C37.3943 1.49579 36.8457 8.70154 34.371 13.5822C31.9675 18.3559 25.8423 23.9514 26.1321 24.4264C26.505 25.0178 29.3811 23.5453 30.8203 22.8684C33.1407 21.783 35.6297 19.75 35.6297 19.75C35.6297 19.75 36.0263 33.0002 33.9316 39.5195C30.8797 50.625 26.657 57.0209 26.1297 57.75H33.2547C35.2687 54.2113 36.5987 50.3543 38.0047 45.0747C39.4107 50.3567 40.7407 54.2137 42.7547 57.75H49.8797C49.3548 57.0209 45.1297 50.625 42.0778 39.5195Z" fill="#8F8F8F"/>
</svg>
