<svg width="32" height="44" viewBox="0 0 32 44" fill="none" xmlns="http://www.w3.org/2000/svg">
<path d="M11.9994 36.9952H20.0006V38.9966H11.9994V36.9952ZM13.0455 39.9973H19.0005V44H13.0455V39.9973ZM4.99829 26.9884H27.0017V27.9891H4.99829V26.9884ZM3.99813 28.9898H28.0019V29.9904H3.99813V28.9898ZM3.99813 24.987H28.0019V25.9877H3.99813V24.987ZM20.3297 32.3851C18.9935 33.674 19.0005 35.9945 19.0005 35.9945H12.9995C12.9995 35.9945 13.0075 33.674 11.6713 32.3851C10.7422 31.4825 9.561 31.2953 9.561 31.2953C8.81588 31.1422 8.99991 31.0402 8.99991 30.9911H23.0021C23.0021 30.9911 23.0871 31.1342 22.343 31.2953C22.343 31.2953 21.2558 31.4825 20.3297 32.3851ZM4.99829 30.9911C5.26233 30.9911 7.6277 30.9911 7.99876 30.9911C7.99876 32.224 7.16963 32.9194 5.99844 32.9875C5.6864 33.0055 5.35034 32.9785 4.99829 32.9054C4.99829 31.9067 4.99829 31.4975 4.99829 30.9911ZM4.99829 23.9864C4.99829 21.985 4.79126 18.4306 3.57707 14.3648C2.24786 9.90775 -0.170514 7.30498 0.00951405 7.0408C0.17354 6.79163 2.29987 7.24094 3.95813 8.38171C5.7274 9.60155 8.12678 11.8161 7.99876 11.9662C7.92074 12.0592 7.38466 11.9291 6.30849 11.5299C5.16332 11.1026 3.99813 10.9775 3.99813 10.9775C3.99813 10.9775 5.83642 13.7023 6.77757 17.1107C7.56669 19.9706 7.97675 23.6651 7.99876 23.9864H4.99829ZM27.0017 23.9864H24.0012C24.0222 23.6651 24.4333 19.9706 25.2224 17.1107C26.1646 13.7023 28.0019 10.9775 28.0019 10.9775C28.0019 10.9775 26.8367 11.1026 25.6915 11.5309C24.6153 11.9301 24.0793 12.0592 24.0012 11.9672C23.8732 11.8171 26.2726 9.60255 28.0419 8.38271C29.7001 7.24194 31.8265 6.79263 31.9905 7.0418C32.1705 7.30598 29.7521 9.90776 28.4229 14.3658C27.2097 18.4306 27.0017 21.985 27.0017 23.9864ZM27.0017 30.9911C26.7377 30.9911 24.3723 30.9911 24.0012 30.9911C24.0012 32.223 24.8314 32.9184 26.0016 32.9865C26.3136 33.0045 26.6507 32.9785 27.0017 32.9054C27.0017 31.9067 27.0017 31.4975 27.0017 30.9911ZM17.7153 16.3051C16.8341 13.5582 17.0002 7.97544 17.0002 7.97544C17.0002 7.97544 18.0483 8.83202 19.0255 9.28933C19.6316 9.57453 20.8428 10.195 20.9998 9.94578C21.1208 9.74564 18.5424 7.38804 17.5302 5.37667C16.4891 3.32026 16.257 0.284194 16 0C15.743 0.284194 15.5119 3.32026 14.4698 5.37667C13.4576 7.38804 10.8782 9.74564 11.0002 9.94578C11.1572 10.195 12.3684 9.57453 12.9745 9.28933C13.9517 8.83202 14.9998 7.97544 14.9998 7.97544C14.9998 7.97544 15.1669 13.5582 14.2847 16.3051C12.9995 20.9843 11.2213 23.6791 10.9992 23.9864H13.9997C14.8478 22.4953 15.4079 20.8702 16 18.6457C16.5921 20.8712 17.1522 22.4963 18.0003 23.9864H21.0008C20.7797 23.6791 19.0005 20.9843 17.7153 16.3051Z" fill="#8F8F8F"/>
</svg>
