<svg width="45" height="28" viewBox="0 0 45 28" fill="none" xmlns="http://www.w3.org/2000/svg">
<path d="M36.7796 0.00943438C36.2355 -0.00527569 35.6843 -0.00270259 35.1272 0.0165844C28.443 0.248033 20.9071 2.83251 14.4209 5.6365C5.77272 9.37517 -1 13.6106 -1 13.6106L-0.265412 15.2676C10.0997 12.566 16.6769 12.0522 20.5606 12.7061C22.5025 13.0331 23.7514 13.6373 24.5347 14.3452C25.3179 15.0532 25.6851 15.8742 25.8079 16.8442C26.0537 18.7841 25.1399 21.296 24.0939 23.2738C23.0479 25.2517 21.9373 26.6755 21.9373 26.6755L23.1834 28C23.1834 28 28.5539 24.5139 33.9483 19.9455C36.6455 17.6613 39.3539 15.1064 41.4229 12.5399C43.492 9.97332 44.9773 7.40197 44.9997 4.90184C45.0084 3.97844 44.8026 3.04775 44.2071 2.28135C43.6117 1.51496 42.6835 0.976536 41.4574 0.649362C39.9812 0.255791 38.412 0.0535627 36.7796 0.00943438ZM36.7343 1.86308C38.2424 1.89272 39.6664 2.0675 40.9713 2.41542C41.9368 2.67306 42.4434 3.02286 42.7325 3.39497C43.0216 3.76709 43.1504 4.22493 43.1442 4.88575C43.1285 6.63628 41.9187 8.9818 39.9683 11.4012C38.0178 13.8206 35.3815 16.32 32.7385 18.5584C30.226 20.6861 27.7738 22.5135 25.8279 23.9138C26.9202 21.8111 27.9745 19.1745 27.6508 16.6189C27.484 15.3029 26.9077 14.0079 25.7898 12.9975C24.6719 11.987 23.0608 11.2706 20.8744 10.9025C17.4583 10.3273 12.5202 10.6068 5.55144 12.0429C8.18579 10.6209 11.3725 8.95329 15.1664 7.31319C21.5432 4.55647 28.9561 2.13592 35.1998 1.88095C35.7201 1.85971 36.2316 1.8532 36.7343 1.86308Z" fill="#BA9C00"/>
</svg>
