<svg width="31" height="30" viewBox="0 0 31 30" fill="none" xmlns="http://www.w3.org/2000/svg">
<path d="M15.75 0C7.4655 0 0.75 6.7155 0.75 15C0.75 23.2845 7.4655 30 15.75 30C24.0345 30 30.75 23.2845 30.75 15C30.75 6.7155 24.0345 0 15.75 0ZM15.75 27C9.12225 27 3.75 21.6277 3.75 15C3.75 8.37225 9.12225 3 15.75 3C22.3777 3 27.75 8.37225 27.75 15C27.75 21.6277 22.3777 27 15.75 27Z" fill="#C5CAE9"/>
<path d="M15.75 1.5C8.4375 1.5 2.25 8.93775 2.25 15C2.25 23.2845 7.4655 30 15.75 30C24.0345 30 30.75 23.2845 30.75 15C30.75 6.7155 24.0345 1.5 15.75 1.5ZM15.75 27C9.12225 27 3.75 21.6277 3.75 15C3.75 8.37225 9.12225 3 15.75 3C22.3777 3 27.75 8.37225 27.75 15C27.75 21.6277 22.3777 27 15.75 27Z" fill="#9FA8DA"/>
<path d="M15.75 3C22.8127 3 27.75 9.06225 27.75 15C27.75 21.6277 22.3777 27 15.75 27C10.2502 27 3.75 22.4557 3.75 15C3.75 22.4557 8.29425 28.5 15.75 28.5C23.2057 28.5 29.25 22.4557 29.25 15C29.25 8.31225 23.2057 3 15.75 3Z" fill="#C5CAE9"/>
<path d="M3.75 15C3.75 8.37225 9.12225 3 15.75 3C23.2057 3 29.25 8.31225 29.25 15C29.25 7.54425 23.2057 1.5 15.75 1.5C8.29425 1.5 2.25 7.54425 2.25 15C2.25 22.4557 8.29425 28.5 15.75 28.5C8.29425 28.5 3.75 22.4557 3.75 15Z" fill="#7986CB"/>
<path d="M3.822 16.2908C3.831 16.3725 3.8475 16.4482 3.858 16.5285C3.8475 16.449 3.83025 16.3718 3.822 16.2908Z" fill="#7986CB"/>
<path d="M15.75 3L13.281 13.797L15.75 15L18.2655 13.797L15.75 3Z" fill="#9FA8DA"/>
<path d="M15.75 3L13.281 13.797L15.75 15V3Z" fill="#E8EAF6"/>
<path d="M5.25 21L15.75 17.7653V15L13.281 13.797L5.25 21Z" fill="#C5CAE9"/>
<path d="M5.25 21L15.75 17.7653V15L5.25 21Z" fill="#7986CB"/>
<path d="M26.25 21.0473L15.75 17.7653V15L18.2655 13.797L26.25 21.0473Z" fill="#C5CAE9"/>
<path d="M26.25 21.0473L15.75 17.7653V15L26.25 21.0473Z" fill="#9FA8DA"/>
</svg>
