<svg width="151" height="40" viewBox="0 0 151 40" fill="none" xmlns="http://www.w3.org/2000/svg">
<path d="M13.32 17.16L20.64 16.4L25.6 26.36C25.76 26.6533 25.9333 26.8933 26.12 27.08C26.3067 27.24 26.52 27.3467 26.76 27.4C27 27.4533 27.28 27.48 27.6 27.48H27.88V30H18.92L13.32 17.16ZM10.72 27.08C10.72 27.16 10.7867 27.2267 10.92 27.28C11.0533 27.3067 11.2133 27.3467 11.4 27.4C11.6133 27.4267 11.84 27.4533 12.08 27.48C12.3467 27.48 12.6 27.48 12.84 27.48H13.28V30H0.23999V27.48H0.63999C1.30666 27.48 1.86666 27.3867 2.31999 27.2C2.77332 27.0133 2.99999 26.6267 2.99999 26.04V5.55999C2.99999 4.97332 2.77332 4.58666 2.31999 4.39999C1.86666 4.21332 1.30666 4.11999 0.63999 4.11999H0.23999V1.59999H14.72C17.0667 1.59999 19.0533 1.93332 20.68 2.59999C22.3333 3.26666 23.5867 4.21332 24.44 5.43999C25.2933 6.63999 25.72 8.06666 25.72 9.71999C25.72 11.32 25.3333 12.7333 24.56 13.96C23.8133 15.16 22.68 16.12 21.16 16.84C19.6667 17.56 17.8267 17.9867 15.64 18.12C15.5067 18.1467 15.3333 18.1733 15.12 18.2C14.9333 18.2 14.7333 18.2133 14.52 18.24C14.3333 18.24 14.1333 18.24 13.92 18.24H9.83999V15.4H13.2C14.2667 15.4 15.1333 15.1867 15.8 14.76C16.4667 14.3067 16.96 13.6533 17.28 12.8C17.6 11.9467 17.76 10.92 17.76 9.71999C17.76 8.59999 17.6 7.65332 17.28 6.87999C16.96 6.10666 16.4667 5.51999 15.8 5.11999C15.16 4.69332 14.36 4.47999 13.4 4.47999H10.72V27.08Z" fill="white"/>
<path d="M43.1712 17.64V19.96C42.2646 20.0933 41.4512 20.2533 40.7312 20.44C40.0112 20.6267 39.3846 20.8667 38.8512 21.16C38.3446 21.4267 37.9179 21.7333 37.5712 22.08C37.2246 22.4 36.9712 22.7867 36.8112 23.24C36.6512 23.6667 36.5712 24.1333 36.5712 24.64C36.5712 25.2533 36.6646 25.76 36.8512 26.16C37.0646 26.56 37.3579 26.8667 37.7312 27.08C38.1046 27.2933 38.5446 27.4 39.0512 27.4C39.6646 27.4 40.2246 27.24 40.7312 26.92C41.2379 26.5733 41.6779 26.0933 42.0512 25.48C42.4512 24.8667 42.7979 24.1467 43.0912 23.32L43.2112 25.96C42.8379 26.8933 42.3446 27.6933 41.7312 28.36C41.1179 29.0267 40.3712 29.5333 39.4912 29.88C38.6112 30.2267 37.5979 30.4 36.4512 30.4C35.0646 30.4 33.8646 30.2 32.8512 29.8C31.8646 29.3733 31.1046 28.76 30.5712 27.96C30.0379 27.1333 29.7712 26.1333 29.7712 24.96C29.7712 23.84 30.0512 22.88 30.6112 22.08C31.1979 21.28 32.0512 20.6 33.1712 20.04C34.2912 19.4533 35.6912 18.9733 37.3712 18.6C39.0512 18.2267 40.9846 17.9067 43.1712 17.64ZM42.7712 30V26.08L42.2912 26.12V15.08C42.2912 14.3333 42.1846 13.7333 41.9712 13.28C41.7579 12.8267 41.4246 12.4933 40.9712 12.28C40.5446 12.0667 40.0112 11.96 39.3712 11.96C38.4112 11.96 37.6112 12.1733 36.9712 12.6C36.3312 13 35.8512 13.4933 35.5312 14.08C35.3179 13.84 35.1979 13.6 35.1712 13.36C35.1446 13.0933 35.1846 12.8533 35.2912 12.64C35.4246 12.4 35.6246 12.2 35.8912 12.04C36.1579 11.88 36.4646 11.7733 36.8112 11.72V16.08H31.1712V11.72C31.5712 11.4267 32.1579 11.08 32.9312 10.68C33.7312 10.2533 34.7312 9.87999 35.9312 9.55999C37.1312 9.23999 38.5312 9.07999 40.1312 9.07999C41.4912 9.07999 42.7312 9.21332 43.8512 9.47999C44.9979 9.74666 45.9846 10.1733 46.8112 10.76C47.6379 11.32 48.2779 12.0533 48.7312 12.96C49.1846 13.84 49.4112 14.9067 49.4112 16.16V26.32C49.4112 26.5867 49.4912 26.8 49.6512 26.96C49.8112 27.12 50.0246 27.24 50.2912 27.32C50.5846 27.4 50.9446 27.4667 51.3712 27.52L51.5312 27.56V30H42.7712Z" fill="white"/>
<path d="M65.8516 27.36C66.8116 27.36 67.6382 27.1467 68.3316 26.72C69.0516 26.2667 69.6649 25.72 70.1716 25.08C70.7049 24.4133 71.1449 23.76 71.4916 23.12L73.8116 24.8C73.2516 25.8933 72.5582 26.8667 71.7316 27.72C70.9316 28.5467 69.9449 29.2 68.7716 29.68C67.6249 30.16 66.2516 30.4 64.6516 30.4C62.4116 30.4 60.4249 29.9733 58.6916 29.12C56.9582 28.24 55.5982 27 54.6116 25.4C53.6249 23.8 53.1316 21.9067 53.1316 19.72C53.1316 17.5333 53.6116 15.6533 54.5716 14.08C55.5582 12.48 56.9449 11.2533 58.7316 10.4C60.5182 9.51999 62.6116 9.07999 65.0116 9.07999C66.5316 9.07999 67.8516 9.22666 68.9716 9.51999C70.0916 9.78666 71.0116 10.1067 71.7316 10.48C72.4782 10.8267 73.0116 11.1467 73.3316 11.44V16.76H67.8116V11.6C68.1582 11.6533 68.4249 11.76 68.6116 11.92C68.8249 12.08 68.9716 12.28 69.0516 12.52C69.1582 12.7333 69.1849 12.96 69.1316 13.2C69.1049 13.44 69.0116 13.64 68.8516 13.8C68.5316 13.2933 68.0782 12.88 67.4916 12.56C66.9049 12.2133 66.1982 12.04 65.3716 12.04C64.3582 12.04 63.4916 12.3467 62.7716 12.96C62.0782 13.5467 61.5449 14.4267 61.1716 15.6C60.7982 16.7467 60.6116 18.12 60.6116 19.72C60.6116 20.9467 60.7316 22.04 60.9716 23C61.2116 23.9333 61.5449 24.72 61.9716 25.36C62.4249 26 62.9716 26.4933 63.6116 26.84C64.2782 27.1867 65.0249 27.36 65.8516 27.36Z" fill="white"/>
<path d="M99.2631 19.76C99.2631 21.84 98.7831 23.6933 97.8231 25.32C96.8898 26.92 95.5431 28.1733 93.7831 29.08C92.0498 29.96 89.9964 30.4 87.6231 30.4C85.2498 30.4 83.1831 29.96 81.4231 29.08C79.6898 28.1733 78.3431 26.92 77.3831 25.32C76.4498 23.6933 75.9831 21.84 75.9831 19.76C75.9831 18.16 76.2498 16.7067 76.7831 15.4C77.3164 14.0933 78.0898 12.9733 79.1031 12.04C80.1431 11.08 81.3698 10.3467 82.7831 9.83999C84.2231 9.33332 85.8364 9.07999 87.6231 9.07999C89.3831 9.07999 90.9698 9.33332 92.3831 9.83999C93.8231 10.3467 95.0498 11.08 96.0631 12.04C97.1031 12.9733 97.8898 14.0933 98.4231 15.4C98.9831 16.7067 99.2631 18.16 99.2631 19.76ZM83.4631 19.72C83.4631 21.4267 83.6231 22.8667 83.9431 24.04C84.2631 25.1867 84.7298 26.0533 85.3431 26.64C85.9565 27.2267 86.7164 27.52 87.6231 27.52C88.5031 27.52 89.2498 27.2267 89.8631 26.64C90.4764 26.0533 90.9431 25.1867 91.2631 24.04C91.5831 22.8667 91.7431 21.4267 91.7431 19.72C91.7431 17.9867 91.5831 16.56 91.2631 15.44C90.9431 14.2933 90.4764 13.44 89.8631 12.88C89.2498 12.32 88.5031 12.04 87.6231 12.04C86.7164 12.04 85.9565 12.32 85.3431 12.88C84.7298 13.44 84.2631 14.2933 83.9431 15.44C83.6231 16.56 83.4631 17.9867 83.4631 19.72Z" fill="white"/>
<path d="M116.445 30.4C115.272 30.4 114.219 30.2533 113.285 29.96C112.379 29.64 111.579 29.16 110.885 28.52C110.192 27.88 109.552 27.0267 108.965 25.96L109.245 21.44C109.779 22.5867 110.285 23.5733 110.765 24.4C111.272 25.2267 111.819 25.8667 112.405 26.32C113.019 26.7467 113.712 26.96 114.485 26.96C115.179 26.96 115.765 26.7867 116.245 26.44C116.725 26.0933 117.125 25.6 117.445 24.96C117.765 24.2933 118.005 23.5067 118.165 22.6C118.325 21.6933 118.405 20.6667 118.405 19.52C118.405 18.4 118.325 17.4133 118.165 16.56C118.032 15.68 117.805 14.9467 117.485 14.36C117.192 13.7733 116.819 13.3333 116.365 13.04C115.912 12.72 115.379 12.56 114.765 12.56C114.019 12.56 113.339 12.7867 112.725 13.24C112.139 13.6667 111.565 14.32 111.005 15.2C110.445 16.0533 109.832 17.1467 109.165 18.48L109.005 14.8C109.779 13.4667 110.539 12.3867 111.285 11.56C112.032 10.7067 112.845 10.08 113.725 9.67999C114.605 9.27999 115.645 9.07999 116.845 9.07999C118.659 9.07999 120.245 9.51999 121.605 10.4C122.992 11.2533 124.059 12.4667 124.805 14.04C125.552 15.5867 125.925 17.4133 125.925 19.52C125.925 21.6533 125.525 23.5467 124.725 25.2C123.925 26.8267 122.805 28.1067 121.365 29.04C119.952 29.9467 118.312 30.4 116.445 30.4ZM103.285 4.35999C103.285 4.09332 103.219 3.87999 103.085 3.71999C102.979 3.55999 102.792 3.42666 102.525 3.31999C102.259 3.21332 101.912 3.11999 101.485 3.03999L101.125 2.95999V0.519989H110.605V25.6L109.765 25.88L107.685 30.04H103.285V4.35999Z" fill="white"/>
<path d="M141.186 25.48L139.106 29.4L137.226 32.2L128.786 13.2C128.652 12.8267 128.492 12.5467 128.306 12.36C128.119 12.1733 127.892 12.04 127.626 11.96C127.359 11.88 127.026 11.84 126.626 11.84H126.546V9.47999H138.466V11.84H138.426C137.999 11.84 137.586 11.8533 137.186 11.88C136.812 11.9067 136.492 11.9467 136.226 12C135.959 12.0267 135.826 12.0933 135.826 12.2L141.186 25.48ZM140.826 29.4C140.079 31.16 139.319 32.6667 138.546 33.92C137.799 35.2 137.039 36.2267 136.266 37C135.519 37.8 134.732 38.3867 133.906 38.76C133.079 39.1333 132.172 39.32 131.186 39.32C130.439 39.32 129.786 39.24 129.226 39.08C128.692 38.92 128.279 38.7333 127.986 38.52V33.28C128.092 33.3067 128.332 33.4 128.706 33.56C129.106 33.72 129.586 33.8667 130.146 34C130.706 34.16 131.306 34.24 131.946 34.24C132.559 34.24 133.132 34.16 133.666 34C134.199 33.8667 134.706 33.6133 135.186 33.24C135.666 32.8667 136.132 32.3333 136.586 31.64C137.039 30.9733 137.466 30.1333 137.866 29.12L138.746 27.12L144.906 12.72C144.906 12.5333 144.786 12.3867 144.546 12.28C144.332 12.1467 144.039 12.04 143.666 11.96C143.292 11.88 142.906 11.84 142.506 11.84H142.386V9.47999H150.026V11.84H149.986C149.639 11.84 149.332 11.8933 149.066 12C148.799 12.1067 148.546 12.2933 148.306 12.56C148.066 12.8267 147.852 13.1867 147.666 13.64L140.826 29.4Z" fill="white"/>
</svg>
