<svg width="30" height="34" viewBox="0 0 30 34" fill="none" xmlns="http://www.w3.org/2000/svg">
<path fill-rule="evenodd" clip-rule="evenodd" d="M25.6579 1.41518C22.9776 0.56845 19.0484 0 15 0C10.9516 0 7.02237 0.56845 4.34211 1.41518C0.749211 2.5505 0 3.04521 0 5.51722C0 18.5115 5.09605 25.7349 9.60237 30.0668C11.9739 32.3462 14.1687 34 15 34C15.8313 34 18.0261 32.347 20.3976 30.0668C24.9039 25.7349 30 18.5115 30 5.51722C30 3.04521 29.2508 2.5505 25.6579 1.41518Z" fill="black"/>
<path fill-rule="evenodd" clip-rule="evenodd" d="M15.0071 33.2064C14.6526 33.1778 12.9995 32.2336 10.1487 29.4936C3.85105 23.4397 0.789474 15.5971 0.789474 5.51722C0.789474 3.63824 1.02395 3.29495 4.57895 2.17153C7.3121 1.30815 11.2082 0.792818 15 0.792818L15.0071 33.2064Z" fill="white"/>
<path fill-rule="evenodd" clip-rule="evenodd" d="M19.3058 28.9212C17.1111 31.0309 15.5929 32.098 15 32.37C14.4071 32.098 12.8889 31.0309 10.6942 28.9212C4.56079 23.025 1.57895 15.3696 1.57895 5.51722C1.57895 4.06874 1.57895 3.95061 4.81579 2.92788C7.47632 2.08749 11.2839 1.58564 15 1.58564C18.7161 1.58564 22.5237 2.08749 25.1842 2.92788C28.4211 3.95061 28.4211 4.06874 28.4211 5.51722C28.4211 15.3696 25.4392 23.025 19.3058 28.9212Z" fill="black"/>
<path fill-rule="evenodd" clip-rule="evenodd" d="M15 32.37C14.4071 32.098 12.8889 31.0309 10.6942 28.9212C4.56079 23.025 1.57895 15.3696 1.57895 5.51722C1.57895 4.06874 1.57895 3.95061 4.81579 2.92788C7.47632 2.08749 11.2839 1.58564 15 1.58564C15 1.58564 15.5929 32.098 15 32.37Z" fill="black"/>
<path d="M5.975 13.405L6.865 13.095L7.48 14.245C7.52667 14.3283 7.57167 14.3933 7.615 14.44C7.65833 14.4833 7.70333 14.5133 7.75 14.53C7.8 14.5433 7.85167 14.55 7.905 14.55H7.95V15H6.725L5.975 13.405ZM5.575 14.5C5.575 14.51 5.58167 14.5183 5.595 14.525C5.61167 14.5283 5.63333 14.5333 5.66 14.54C5.68667 14.5433 5.71833 14.5467 5.755 14.55C5.79167 14.55 5.83167 14.55 5.875 14.55H5.95V15H4.205V14.55H4.26C4.34 14.55 4.40667 14.5383 4.46 14.515C4.51333 14.4917 4.54 14.4433 4.54 14.37V12.08C4.54 12.0067 4.51333 11.9583 4.46 11.935C4.40667 11.9117 4.34 11.9 4.26 11.9H4.205V11.45H6.34C6.62333 11.45 6.86167 11.4833 7.055 11.55C7.25167 11.6167 7.4 11.72 7.5 11.86C7.6 12 7.65 12.1783 7.65 12.395C7.65 12.575 7.60833 12.7317 7.525 12.865C7.44167 12.9983 7.32 13.1083 7.16 13.195C7.00333 13.2817 6.81167 13.3433 6.585 13.38C6.56167 13.4133 6.54333 13.44 6.53 13.46C6.52 13.48 6.51 13.5 6.5 13.52C6.49333 13.5367 6.48167 13.555 6.465 13.575H5.405V13.155H6.12C6.23 13.155 6.31833 13.1283 6.385 13.075C6.455 13.0183 6.50667 12.9383 6.54 12.835C6.57333 12.7317 6.59 12.6083 6.59 12.465C6.59 12.3317 6.575 12.2217 6.545 12.135C6.515 12.045 6.46667 11.9783 6.4 11.935C6.33667 11.8917 6.255 11.87 6.155 11.87H5.575V14.5Z" fill="#DFBB00"/>
<path d="M10.1018 13.27V13.635C9.9318 13.6683 9.79013 13.7033 9.6768 13.74C9.5668 13.7767 9.47846 13.815 9.4118 13.855C9.34846 13.8917 9.3018 13.9317 9.2718 13.975C9.24513 14.0183 9.2268 14.0633 9.2168 14.11C9.21013 14.1567 9.2068 14.2067 9.2068 14.26C9.2068 14.3533 9.22013 14.4267 9.2468 14.48C9.27346 14.53 9.31013 14.565 9.3568 14.585C9.40346 14.6017 9.46346 14.61 9.5368 14.61C9.59346 14.61 9.64846 14.6 9.7018 14.58C9.75846 14.56 9.81846 14.5217 9.8818 14.465C9.94846 14.4083 10.0201 14.3233 10.0968 14.21L10.1868 14.33C10.1001 14.5133 10.0101 14.6583 9.9168 14.765C9.82346 14.8683 9.71846 14.9433 9.6018 14.99C9.48513 15.0367 9.3468 15.06 9.1868 15.06C8.9868 15.06 8.8218 15.035 8.6918 14.985C8.56513 14.935 8.47013 14.8567 8.4068 14.75C8.3468 14.6433 8.3168 14.5 8.3168 14.32C8.3168 14.1733 8.34513 14.0467 8.4018 13.94C8.45846 13.8333 8.55346 13.74 8.6868 13.66C8.82013 13.58 9.00013 13.51 9.2268 13.45C9.4568 13.3867 9.74846 13.3267 10.1018 13.27ZM10.2118 15L10.0918 14.405L10.0718 14.425V12.805C10.0718 12.7583 10.0635 12.715 10.0468 12.675C10.0301 12.635 9.99346 12.605 9.9368 12.585C9.88013 12.5617 9.78846 12.55 9.6618 12.55C9.48846 12.55 9.34346 12.5633 9.2268 12.59C9.11013 12.6133 9.03513 12.6367 9.0018 12.66C8.97846 12.6567 8.96513 12.645 8.9618 12.625C8.9618 12.6017 8.9718 12.5783 8.9918 12.555C9.01513 12.5283 9.0468 12.5067 9.0868 12.49C9.13013 12.4733 9.18513 12.47 9.2518 12.48V13.125H8.4668V12.385C8.52013 12.355 8.60346 12.3167 8.7168 12.27C8.83346 12.2233 8.97846 12.1833 9.1518 12.15C9.32513 12.1133 9.52513 12.095 9.7518 12.095C9.9618 12.095 10.1468 12.1117 10.3068 12.145C10.4668 12.1783 10.6001 12.23 10.7068 12.3C10.8135 12.37 10.8935 12.4583 10.9468 12.565C11.0001 12.6717 11.0268 12.795 11.0268 12.935V14.415C11.0268 14.445 11.0351 14.47 11.0518 14.49C11.0718 14.5067 11.0985 14.52 11.1318 14.53C11.1685 14.5367 11.2151 14.5483 11.2718 14.565L11.3118 14.575V15H10.2118Z" fill="#DFBB00"/>
<path d="M13.3913 14.575C13.4946 14.575 13.588 14.5567 13.6713 14.52C13.7546 14.48 13.8296 14.4267 13.8963 14.36C13.963 14.29 14.0213 14.21 14.0713 14.12L14.4313 14.335C14.3713 14.4883 14.2846 14.62 14.1713 14.73C14.058 14.8367 13.9213 14.9183 13.7613 14.975C13.6046 15.0317 13.4296 15.06 13.2363 15.06C12.913 15.06 12.6313 15.0067 12.3913 14.9C12.1546 14.79 11.9713 14.625 11.8413 14.405C11.7113 14.185 11.6463 13.9083 11.6463 13.575C11.6463 13.245 11.708 12.9717 11.8313 12.755C11.9546 12.535 12.1346 12.37 12.3713 12.26C12.608 12.15 12.898 12.095 13.2413 12.095C13.4246 12.095 13.588 12.105 13.7313 12.125C13.8746 12.1417 13.9963 12.1617 14.0963 12.185C14.1996 12.2083 14.2763 12.23 14.3263 12.25V13.26H13.5763V12.38C13.6196 12.3767 13.653 12.39 13.6763 12.42C13.703 12.4467 13.7213 12.48 13.7313 12.52C13.7413 12.56 13.748 12.5967 13.7513 12.63C13.7546 12.6633 13.7596 12.685 13.7663 12.695C13.703 12.655 13.633 12.625 13.5563 12.605C13.483 12.5817 13.393 12.57 13.2863 12.57C13.1263 12.57 12.9996 12.6033 12.9063 12.67C12.813 12.7333 12.7463 12.8383 12.7063 12.985C12.6663 13.1317 12.6463 13.3283 12.6463 13.575C12.6463 13.7683 12.658 13.9283 12.6813 14.055C12.708 14.1817 12.7496 14.2833 12.8063 14.36C12.8663 14.4367 12.943 14.4917 13.0363 14.525C13.133 14.5583 13.2513 14.575 13.3913 14.575Z" fill="#DFBB00"/>
<path d="M17.8815 13.585C17.8815 13.895 17.8215 14.1617 17.7015 14.385C17.5849 14.6083 17.4099 14.78 17.1765 14.9C16.9432 15.0167 16.6582 15.075 16.3215 15.075C15.9849 15.075 15.6999 15.0167 15.4665 14.9C15.2332 14.78 15.0565 14.6083 14.9365 14.385C14.8199 14.1617 14.7615 13.895 14.7615 13.585C14.7615 13.3483 14.7949 13.1383 14.8615 12.955C14.9282 12.7683 15.0265 12.6117 15.1565 12.485C15.2899 12.355 15.4532 12.2583 15.6465 12.195C15.8432 12.1283 16.0682 12.095 16.3215 12.095C16.5749 12.095 16.7982 12.1283 16.9915 12.195C17.1882 12.2583 17.3515 12.355 17.4815 12.485C17.6149 12.615 17.7149 12.7717 17.7815 12.955C17.8482 13.1383 17.8815 13.3483 17.8815 13.585ZM15.7615 13.585C15.7615 13.8417 15.7782 14.045 15.8115 14.195C15.8449 14.3417 15.9015 14.4467 15.9815 14.51C16.0649 14.57 16.1782 14.6 16.3215 14.6C16.4682 14.6 16.5815 14.57 16.6615 14.51C16.7415 14.4467 16.7982 14.3417 16.8315 14.195C16.8649 14.045 16.8815 13.8417 16.8815 13.585C16.8815 13.3283 16.8649 13.1267 16.8315 12.98C16.7982 12.83 16.7415 12.7233 16.6615 12.66C16.5815 12.5967 16.4682 12.565 16.3215 12.565C16.1782 12.565 16.0649 12.5967 15.9815 12.66C15.9015 12.7233 15.8449 12.83 15.8115 12.98C15.7782 13.1267 15.7615 13.3283 15.7615 13.585Z" fill="#DFBB00"/>
<path d="M20.3175 15.06C20.1075 15.06 19.9292 15.0217 19.7825 14.945C19.6392 14.8683 19.5208 14.7583 19.4275 14.615C19.3375 14.4683 19.2625 14.2983 19.2025 14.105L19.2475 13.925C19.3508 14.0483 19.4408 14.1533 19.5175 14.24C19.5942 14.3233 19.6708 14.3883 19.7475 14.435C19.8242 14.4783 19.9142 14.5 20.0175 14.5C20.1142 14.5 20.1975 14.4817 20.2675 14.445C20.3375 14.4083 20.3942 14.3517 20.4375 14.275C20.4842 14.1983 20.5175 14.1 20.5375 13.98C20.5575 13.86 20.5675 13.715 20.5675 13.545C20.5675 13.385 20.5592 13.25 20.5425 13.14C20.5292 13.0267 20.5042 12.935 20.4675 12.865C20.4308 12.795 20.3808 12.7433 20.3175 12.71C20.2542 12.6767 20.1725 12.66 20.0725 12.66C19.9725 12.66 19.8808 12.68 19.7975 12.72C19.7175 12.7567 19.6342 12.8217 19.5475 12.915C19.4642 13.0083 19.3642 13.1383 19.2475 13.305L19.2425 13.09C19.3225 12.8833 19.4142 12.7067 19.5175 12.56C19.6208 12.41 19.7425 12.295 19.8825 12.215C20.0225 12.135 20.1892 12.095 20.3825 12.095C20.6525 12.095 20.8742 12.1567 21.0475 12.28C21.2242 12.4033 21.3558 12.5733 21.4425 12.79C21.5292 13.0067 21.5725 13.2583 21.5725 13.545C21.5725 13.8317 21.5242 14.09 21.4275 14.32C21.3308 14.55 21.1892 14.7317 21.0025 14.865C20.8158 14.995 20.5875 15.06 20.3175 15.06ZM18.4825 11.685C18.4825 11.655 18.4725 11.6317 18.4525 11.615C18.4358 11.595 18.4092 11.58 18.3725 11.57C18.3358 11.56 18.2908 11.5483 18.2375 11.535L18.1925 11.525V11.1H19.4575V14.325L19.4275 14.335L19.0675 15.095H18.4825V11.685Z" fill="#DFBB00"/>
<path d="M23.8958 14.445L23.6508 14.805L23.2808 15.27L22.1908 12.85C22.1608 12.7833 22.1308 12.7317 22.1008 12.695C22.0741 12.6583 22.0424 12.6333 22.0058 12.62C21.9724 12.6067 21.9241 12.6 21.8608 12.6H21.8108V12.15H23.4258V12.57H23.3858C23.3358 12.57 23.2874 12.5717 23.2408 12.575C23.1974 12.5783 23.1624 12.5833 23.1358 12.59C23.1091 12.5933 23.0958 12.6 23.0958 12.61L23.8958 14.445ZM23.8908 14.925C23.7808 15.1683 23.6791 15.3733 23.5858 15.54C23.4924 15.7067 23.3941 15.84 23.2908 15.94C23.1874 16.0433 23.0674 16.1183 22.9308 16.165C22.7974 16.215 22.6358 16.24 22.4458 16.24C22.3124 16.24 22.1874 16.2283 22.0708 16.205C21.9574 16.1817 21.8791 16.1583 21.8358 16.135V15.535C21.8458 15.5383 21.8824 15.5483 21.9458 15.565C22.0091 15.5817 22.0874 15.5983 22.1808 15.615C22.2774 15.6317 22.3774 15.64 22.4808 15.64C22.5941 15.64 22.6941 15.625 22.7808 15.595C22.8674 15.565 22.9441 15.515 23.0108 15.445C23.0808 15.375 23.1441 15.2817 23.2008 15.165C23.2574 15.0483 23.3124 14.9033 23.3658 14.73L23.5858 14.52L24.3758 12.665C24.3758 12.6517 24.3624 12.6383 24.3358 12.625C24.3124 12.6083 24.2791 12.595 24.2358 12.585C24.1924 12.575 24.1424 12.57 24.0858 12.57H24.0558V12.15H25.1808V12.6H25.1308C25.0708 12.6 25.0208 12.6083 24.9808 12.625C24.9441 12.6417 24.9124 12.67 24.8858 12.71C24.8591 12.75 24.8291 12.8067 24.7958 12.88L23.8908 14.925Z" fill="#DFBB00"/>
</svg>
