<svg width="12" height="14" viewBox="0 0 12 14" fill="none" xmlns="http://www.w3.org/2000/svg">
<path fill-rule="evenodd" clip-rule="evenodd" d="M10.2632 0.582721C9.19105 0.234068 7.61937 0 6 0C4.38063 0 2.80895 0.234068 1.73684 0.582721C0.299684 1.0502 0 1.25391 0 2.2718C0 7.62238 2.03842 10.5967 3.84095 12.3805C4.78958 13.319 5.66747 14 6 14C6.33253 14 7.21042 13.3193 8.15905 12.3805C9.96158 10.5967 12 7.62238 12 2.2718C12 1.25391 11.7003 1.0502 10.2632 0.582721Z" fill="#666666"/>
<path fill-rule="evenodd" clip-rule="evenodd" d="M6.00284 13.6732C5.86105 13.6615 5.19979 13.2727 4.05947 12.1444C1.54042 9.65162 0.315789 6.42234 0.315789 2.2718C0.315789 1.4981 0.409579 1.35674 1.83158 0.894159C2.92484 0.53865 4.48326 0.326454 6 0.326454L6.00284 13.6732Z" fill="#969696"/>
<path fill-rule="evenodd" clip-rule="evenodd" d="M7.72232 11.9087C6.84442 12.7774 6.23716 13.2168 6 13.3288C5.76284 13.2168 5.15558 12.7774 4.27768 11.9087C1.82432 9.48089 0.631579 6.32865 0.631579 2.2718C0.631579 1.67536 0.631579 1.62672 1.92632 1.2056C2.99053 0.859554 4.51358 0.652909 6 0.652909C7.48642 0.652909 9.00947 0.859554 10.0737 1.2056C11.3684 1.62672 11.3684 1.67536 11.3684 2.2718C11.3684 6.32865 10.1757 9.48089 7.72232 11.9087Z" fill="#8F8F8F"/>
<path fill-rule="evenodd" clip-rule="evenodd" d="M6 13.3288C5.76284 13.2168 5.15558 12.7774 4.27768 11.9087C1.82432 9.48089 0.631579 6.32865 0.631579 2.2718C0.631579 1.67536 0.631579 1.62672 1.92632 1.2056C2.99053 0.859554 4.51358 0.652909 6 0.652909C6 0.652909 6.23716 13.2168 6 13.3288Z" fill="#8F8F8F"/>
<path fill-rule="evenodd" clip-rule="evenodd" d="M1.40463 2.18984L1.64937 2.09321V3.25897L2.05642 3.1026V3.35006L1.40463 3.59163C1.40463 3.59163 1.40463 2.1869 1.40463 2.18984ZM2.64379 1.79744L2.41453 1.85522L2.08863 3.33439L2.34568 3.25538L2.41705 2.88943L2.65137 2.82087L2.73031 3.16822L2.98484 3.10228L2.64379 1.79744ZM2.45526 2.65275L2.53168 2.21073L2.61316 2.61586L2.45526 2.65275ZM3.08937 3.08171L3.31326 3.0396L3.2981 2.27112L3.54253 3.10815L3.792 2.28451L3.77431 2.96353L4.01621 2.93709V1.54215L3.77179 1.57382L3.55263 2.41052L3.32621 1.64466L3.08684 1.69983C3.08684 1.69983 3.08684 3.08432 3.08937 3.08171ZM4.82558 2.12389C4.88937 2.07394 4.95284 2.01584 4.95284 1.82649C4.95284 1.63715 4.81547 1.47914 4.61937 1.48959C4.45389 1.49841 4.20947 1.52387 4.20947 1.52387V2.90804C4.20947 2.90804 4.59884 2.87637 4.64495 2.87115C4.69074 2.86592 4.97337 2.80814 4.97337 2.41052C4.97337 2.41052 4.97558 2.19473 4.82558 2.12389ZM4.4501 1.73574C4.4501 1.73574 4.54579 1.73117 4.56568 1.73019C4.58558 1.72921 4.70874 1.7279 4.70874 1.8451C4.70874 1.9623 4.63295 2.02367 4.57768 2.02922C4.52274 2.03477 4.44884 2.03379 4.44884 2.03379L4.4501 1.73574ZM4.60389 2.62369C4.548 2.63414 4.45358 2.63643 4.45358 2.63643V2.28157C4.45358 2.28157 4.57074 2.27373 4.59347 2.27373C4.61653 2.27373 4.73084 2.29202 4.73084 2.42097C4.73116 2.55024 4.6601 2.61325 4.60389 2.62369ZM5.502 1.41549C5.27179 1.41549 5.08516 1.64564 5.08516 2.12879C5.08516 2.69225 5.27179 2.84209 5.502 2.84209C5.73221 2.84209 5.91884 2.60476 5.91884 2.12879C5.91884 1.65249 5.73221 1.41549 5.502 1.41549ZM5.502 2.60509C5.4041 2.60509 5.32484 2.5065 5.32484 2.13597C5.32484 1.81833 5.4041 1.66686 5.502 1.66686C5.59989 1.66686 5.67916 1.8229 5.67916 2.13597C5.67916 2.44904 5.59989 2.60509 5.502 2.60509ZM6.65147 2.20224C6.65147 2.20224 6.84537 2.13042 6.84537 1.83531C6.84537 1.54019 6.61484 1.45335 6.52705 1.44944C6.43926 1.44552 6.06253 1.4305 6.06253 1.4305V2.81859H6.30031C6.30031 2.8225 6.3041 2.2437 6.3041 2.2437H6.39568L6.60063 2.83001L6.864 2.84144L6.65147 2.20224ZM6.47589 2.01322C6.39916 2.01322 6.30031 2.01322 6.30031 2.01322V1.68024C6.30031 1.68024 6.38084 1.68024 6.44305 1.68024C6.50526 1.68024 6.60758 1.71811 6.60758 1.8278C6.60758 1.93749 6.55263 2.01322 6.47589 2.01322ZM7.49621 2.38408L7.3601 2.37461V2.13303L7.74158 2.166C7.74158 2.166 7.74158 2.42423 7.74158 2.48985C7.74158 2.55547 7.74158 2.89106 7.38758 2.89106C7.03358 2.89106 6.93821 2.51792 6.93821 2.12128C6.93821 1.72464 7.06295 1.45499 7.33326 1.45499C7.71379 1.45499 7.7441 1.8797 7.7441 1.8797L7.49905 1.92443C7.49905 1.92443 7.46274 1.70636 7.356 1.70636C7.24926 1.70636 7.17663 1.90354 7.17663 2.14968C7.17663 2.39616 7.22874 2.64491 7.374 2.64491C7.49779 2.64491 7.49874 2.49474 7.49874 2.46438C7.49842 2.43337 7.49621 2.38408 7.49621 2.38408ZM7.92095 1.53856V2.92469L8.15495 2.9619L8.15937 2.35274L8.46537 2.39452L8.46095 2.99912L8.71295 3.0458V1.66881L8.46537 1.61789V2.14805L8.1641 2.10137V1.5761L7.92095 1.53856ZM8.904 1.7093V3.08497L9.1541 3.13394V1.75826L8.904 1.7093ZM9.35653 1.80005V3.17605L9.58989 3.24918V2.39354L9.94105 3.34712L10.1438 3.42742V2.03053L9.90063 1.94663V2.68703L9.58295 1.85587L9.35653 1.80005ZM10.3431 2.10724V3.4937L10.5862 3.5949V2.19473L10.3431 2.10724Z" fill="#777777"/>
<path fill-rule="evenodd" clip-rule="evenodd" d="M6.81156 4.5155C6.72125 4.46588 6.61262 4.43324 6.50304 4.42442C6.39346 4.41561 6.28293 4.43095 6.18756 4.47763C6.09251 4.52432 5.85851 4.6216 5.61567 4.78254C5.37251 4.94381 5.12051 5.16874 4.98851 5.47038C4.85651 5.77203 4.78862 5.963 4.74662 6.09587C4.70462 6.22874 4.68883 6.3035 4.66072 6.3727C4.63262 6.44191 4.58778 6.51177 4.5483 6.59012C4.50883 6.66847 4.47535 6.75498 4.47062 6.85749C4.46588 6.95999 4.45072 7.0798 4.43146 7.19439C4.4122 7.3093 4.38851 7.41866 4.36578 7.50126C4.34304 7.58352 4.31399 7.67819 4.28872 7.78495C4.26346 7.89137 4.2423 8.00889 4.2363 8.13719C4.2303 8.26516 4.21514 8.39313 4.19051 8.51229C4.16651 8.63144 4.13335 8.74211 4.09167 8.83645C4.04999 8.9308 4.03357 9.01339 4.0162 9.09109C3.99851 9.16911 3.97956 9.24191 3.93251 9.31667C3.88578 9.3911 3.8223 9.48447 3.75946 9.57294C3.6963 9.66108 3.63346 9.74498 3.58767 9.80015C3.54157 9.85565 3.51662 9.92159 3.52641 9.97839C3.5362 10.0352 3.58041 10.0822 3.67262 10.0998C3.76451 10.1171 3.84599 10.1021 3.90788 10.0669C3.97009 10.0316 4.01272 9.97578 4.0282 9.91212C4.04335 9.84879 4.04778 9.75902 4.05693 9.66794C4.06578 9.57685 4.07935 9.48447 4.11378 9.41559L4.18293 9.26476C4.21641 9.21514 4.23883 9.19686 4.26125 9.18217C4.28367 9.16715 4.30578 9.1554 4.33862 9.11851C4.37114 9.08162 4.42578 8.97846 4.47314 8.86192C4.52051 8.7457 4.56062 8.6161 4.56472 8.52632C4.56914 8.43655 4.58178 8.36669 4.60009 8.30793C4.61809 8.24949 4.64209 8.20248 4.66893 8.15874C4.69578 8.11499 4.71346 8.06472 4.73872 8.0275C4.76367 7.98996 4.79588 7.96613 4.85114 7.97527C4.90641 7.98441 4.92062 8.01412 4.92504 8.05133C4.92946 8.08855 4.92441 8.13327 4.94114 8.17277C4.95788 8.21195 4.9743 8.25471 4.99893 8.29291C5.02325 8.3311 5.05609 8.36473 5.10441 8.3866C5.15304 8.40815 5.19125 8.44863 5.20925 8.49466C5.22725 8.54069 5.22472 8.59194 5.19188 8.63503C5.15872 8.67812 5.11199 8.75288 5.07251 8.82993C5.03335 8.90664 5.00178 8.98532 4.99925 9.03657C4.99704 9.08782 4.99957 9.1652 4.9863 9.24485C4.97335 9.32451 4.94462 9.40644 4.87988 9.46749C4.81514 9.52854 4.76272 9.58991 4.72609 9.64443C4.68946 9.69862 4.66862 9.74596 4.66735 9.77795C4.66578 9.80994 4.6762 9.85238 4.70683 9.88764C4.73778 9.9229 4.78893 9.9513 4.86946 9.95521C4.94967 9.95913 5.0122 9.9464 5.0602 9.91832C5.10788 9.89025 5.14072 9.84683 5.1622 9.79036C5.18335 9.73355 5.18209 9.69177 5.17609 9.65455C5.17009 9.61733 5.15904 9.58469 5.16125 9.54617C5.16314 9.50765 5.17767 9.46325 5.19346 9.41787C5.20956 9.37217 5.22725 9.32483 5.23577 9.28043C5.24399 9.23603 5.25599 9.18184 5.27872 9.1221C5.30178 9.06236 5.33556 8.99674 5.3883 8.92852C5.44104 8.86029 5.47167 8.80087 5.49756 8.74766C5.52346 8.69445 5.54399 8.64711 5.57714 8.60369C5.6103 8.5606 5.62388 8.5384 5.6362 8.53285C5.64883 8.52698 5.66083 8.53742 5.69083 8.55799C5.72083 8.57888 5.7262 8.59847 5.71893 8.62034C5.71167 8.64221 5.69178 8.66702 5.67188 8.69836C5.65199 8.72938 5.6122 8.78194 5.57083 8.83776C5.52946 8.89358 5.4862 8.95235 5.45967 8.99609C5.43283 9.03984 5.41451 9.09664 5.4202 9.14528C5.42556 9.1936 5.45462 9.23375 5.5222 9.24354C5.59009 9.25334 5.64251 9.25595 5.68009 9.24648C5.71767 9.23734 5.74041 9.2158 5.7483 9.1776C5.75651 9.1394 5.77167 9.07934 5.79156 9.01927C5.81146 8.9592 5.83578 8.89946 5.8623 8.86257C5.88883 8.82535 5.90588 8.79075 5.91662 8.76072C5.92735 8.73068 5.93178 8.70522 5.93272 8.68596C5.96809 8.72644 5.99651 8.7728 6.02083 8.82046C6.04483 8.86845 6.06409 8.91742 6.08051 8.96312C6.09693 9.00915 6.13767 9.06563 6.21314 9.11133C6.2883 9.15703 6.3982 9.19131 6.55293 9.19262C6.70799 9.19425 6.78535 9.19164 6.82925 9.17923C6.87314 9.16715 6.88356 9.14495 6.90378 9.10774C6.92399 9.07052 6.97104 8.99544 6.9963 8.91807C7.02188 8.8407 7.02567 8.76039 6.95967 8.71208C6.97514 8.64874 6.99757 8.56321 7.02946 8.48127C7.06104 8.39933 7.10209 8.32098 7.15388 8.27234C7.20567 8.22337 7.27609 8.17571 7.33862 8.13229C7.40114 8.08887 7.45578 8.0497 7.47567 8.01869C7.55399 8.06765 7.62535 8.1274 7.67714 8.21031C7.72925 8.29323 7.76114 8.39933 7.76083 8.54069C7.75704 8.6174 7.76304 8.68988 7.77093 8.75288C7.77883 8.81589 7.7883 8.86943 7.79272 8.90827C7.79714 8.94712 7.79525 8.98858 7.79304 9.032C7.79114 9.07509 7.78893 9.12014 7.79304 9.16519C7.79714 9.21057 7.82272 9.25334 7.85714 9.28402C7.89125 9.31471 7.93388 9.33299 7.97114 9.32842C8.00872 9.32418 8.04441 9.29055 8.07125 9.24681C8.09809 9.20306 8.11609 9.14952 8.11799 9.10447C8.1202 9.05975 8.10946 9.02678 8.09335 9.00034C8.07756 8.97357 8.05672 8.95365 8.03935 8.93341C8.02167 8.91317 8.00999 8.89652 8.00809 8.87236C8.0062 8.84821 8.01378 8.81654 8.03493 8.76627C8.05578 8.71567 8.05483 8.67062 8.04409 8.6334C8.03335 8.59586 8.01314 8.56615 7.99578 8.54591C7.97809 8.52567 7.95914 8.47017 7.94683 8.39868C7.93483 8.32751 7.92946 8.24035 7.93957 8.15743C7.94967 8.07451 7.94651 7.97788 7.92883 7.89365C7.91114 7.8091 7.87893 7.73696 7.83093 7.70235C7.97335 7.70301 8.13599 7.7017 8.28314 7.66742C8.4303 7.63314 8.56199 7.56589 8.64283 7.43499C8.56262 7.42454 8.46946 7.42617 8.3602 7.38536C8.25062 7.34456 8.12462 7.26099 7.97809 7.08013C7.9942 7.00407 7.99956 6.95281 7.99704 6.90939C7.99451 6.86598 7.98378 6.83007 7.96735 6.78436C7.95093 6.73833 7.9282 6.69557 7.91588 6.62766C7.90356 6.55976 7.90167 6.4664 7.92756 6.31982C7.95314 6.17357 7.96104 5.93623 7.9162 5.67376C7.87135 5.41129 7.77346 5.12369 7.58683 4.87656C7.65062 4.70615 7.68725 4.58928 7.69956 4.49363C7.71188 4.39798 7.69988 4.32322 7.66672 4.23834C7.63356 4.15314 7.53788 4.07773 7.39514 4.0206C7.25209 3.9638 7.06199 3.92527 6.83967 3.91385C6.61704 3.90275 6.29841 3.89622 6.03599 3.875C5.77388 3.85378 5.56799 3.81787 5.57114 3.74703C5.57462 3.67652 5.61314 3.64648 5.66335 3.63277C5.71356 3.61939 5.77514 3.62265 5.82504 3.61841C5.89767 3.65432 6.00188 3.67847 6.11114 3.69545C6.22041 3.7121 6.33441 3.72124 6.42725 3.72581C6.52009 3.73038 6.60756 3.70916 6.70009 3.68794C6.7923 3.66705 6.88956 3.64616 7.00072 3.65171C6.90946 3.61482 6.79451 3.56095 6.67546 3.51949C6.55641 3.47836 6.43388 3.44963 6.32809 3.46367C6.29272 3.42319 6.26651 3.39283 6.22388 3.37814C6.18093 3.36312 6.1222 3.36312 6.02241 3.38401C5.9223 3.40458 5.85978 3.41111 5.80704 3.41503C5.7543 3.41862 5.71072 3.4196 5.64851 3.42939C5.5863 3.43918 5.49914 3.44441 5.42651 3.47444C5.35388 3.50447 5.29546 3.55932 5.29041 3.66835C5.28535 3.77739 5.31472 3.87533 5.41641 3.94943C5.51841 4.02354 5.69241 4.07414 5.97693 4.0885C6.26114 4.10286 6.5703 4.11527 6.82451 4.14563C7.07872 4.17599 7.27767 4.22463 7.34178 4.31114C7.40557 4.39798 7.42167 4.45348 7.40872 4.49755C7.39578 4.54195 7.35378 4.57524 7.3023 4.61736C7.25904 4.6154 7.18167 4.61475 7.0923 4.60201C7.00325 4.58961 6.9022 4.56512 6.81156 4.5155Z" fill="#737373"/>
</svg>
